<?xml version="1.0" encoding="utf-8"?>
<!-- Generator: Adobe Illustrator 20.0.0, SVG Export Plug-In . SVG Version: 6.00 Build 0)  -->
<svg version="1.1" id="Слой_1" xmlns="http://www.w3.org/2000/svg" xmlns:xlink="http://www.w3.org/1999/xlink" x="0px" y="0px"
	 viewBox="0 0 54 38" style="enable-background:new 0 0 54 38;" xml:space="preserve">
<style type="text/css">
	.st0{fill-rule:evenodd;clip-rule:evenodd;fill:none;}
	.st1{fill-rule:evenodd;clip-rule:evenodd;fill:#0D0E0F;}
</style>
<path class="st0" d="M-992,361h479v118h-479V361z"/>
<path class="st1" d="M28.7,33.9L28.7,33.9l0.1-0.2L28.7,33.9z"/>
<path class="st1" d="M52.5,13.3l-1.6,3l-8.3,17.7h0L41.2,37H30.5c0,0-1.4,0.1-1.9-0.7c-0.5-0.8,0.1-2.5,0.1-2.5h0.2l-0.1-0.2
	L40.6,8.6h5.8l0,0h4.2c0,0,1.2-0.3,2.2,0.8C53.7,10.4,52.5,13.3,52.5,13.3z"/>
<path class="st1" d="M19.5,10.3l-2.1,4.5l0.5-1L12,26.2h0l-0.9,2c0,0-0.6,1-1.4,0.9c-0.8-0.1-1.3-1.1-1.3-1.1l-0.6-1.3h0L2.3,15
	l-0.7-1.4c0,0-1.2-2.8-0.2-3.9c1-1,2.2-0.8,2.2-0.8H6l0,0l2.7,0c-1-2.8,0.1-6,2.7-7.5c3-1.7,6.8-0.7,8.5,2.3
	C21.3,5.9,21,8.5,19.5,10.3z"/>
<path class="st1" d="M34.4,15.2l-8.8,18.7L24.1,37H13.3c0,0-1.3,0.1-1.9-0.7c-0.5-0.8,0.1-2.5,0.1-2.5h0.1L23.6,8.6h9.8
	c0,0,1.2-0.3,2.2,0.8c1,1.1-0.2,3.9-0.2,3.9L34.4,15.2z"/>
</svg>
